<svg width="124" height="53" viewBox="0 0 124 53" fill="none" xmlns="http://www.w3.org/2000/svg">
<path d="M37.646 24.22L41.102 34.048L44.522 24.22H47.132L42.29 37H39.896L35.036 24.22H37.646ZM48.7121 26.254V23.86H51.1241V26.254H48.7121ZM48.7121 37V27.568H51.1241V37H48.7121ZM57.44 37.054C56.6 37.054 55.862 36.838 55.226 36.406C54.59 35.974 54.092 35.398 53.732 34.678C53.372 33.946 53.192 33.148 53.192 32.284C53.192 31.372 53.378 30.55 53.75 29.818C54.122 29.074 54.638 28.486 55.298 28.054C55.958 27.622 56.72 27.406 57.584 27.406C58.316 27.406 58.958 27.574 59.51 27.91C60.062 28.234 60.518 28.672 60.878 29.224V27.568H62.984V36.55C62.984 37.486 62.756 38.284 62.3 38.944C61.856 39.616 61.238 40.126 60.446 40.474C59.654 40.834 58.754 41.014 57.746 41.014C56.714 41.014 55.844 40.84 55.136 40.492C54.44 40.156 53.84 39.676 53.336 39.052L54.65 37.774C55.01 38.218 55.46 38.566 56 38.818C56.552 39.07 57.134 39.196 57.746 39.196C58.25 39.196 58.712 39.1 59.132 38.908C59.564 38.728 59.912 38.44 60.176 38.044C60.44 37.66 60.572 37.162 60.572 36.55V35.362C60.26 35.902 59.816 36.322 59.24 36.622C58.676 36.91 58.076 37.054 57.44 37.054ZM58.25 35.128C58.778 35.128 59.252 34.972 59.672 34.66C60.104 34.348 60.404 33.976 60.572 33.544V31.294C60.356 30.742 60.014 30.298 59.546 29.962C59.09 29.626 58.61 29.458 58.106 29.458C57.614 29.458 57.182 29.596 56.81 29.872C56.45 30.148 56.168 30.508 55.964 30.952C55.76 31.384 55.658 31.852 55.658 32.356C55.658 32.872 55.772 33.34 56 33.76C56.228 34.18 56.534 34.516 56.918 34.768C57.314 35.008 57.758 35.128 58.25 35.128ZM74.3742 37H71.9622V31.708C71.9622 30.952 71.8302 30.4 71.5662 30.052C71.3022 29.704 70.9362 29.53 70.4682 29.53C70.1442 29.53 69.8142 29.614 69.4782 29.782C69.1542 29.95 68.8602 30.184 68.5962 30.484C68.3322 30.772 68.1402 31.108 68.0202 31.492V37H65.6082V27.568H67.7862V29.314C68.1342 28.726 68.6382 28.264 69.2982 27.928C69.9582 27.58 70.7022 27.406 71.5302 27.406C72.1182 27.406 72.5982 27.514 72.9702 27.73C73.3422 27.934 73.6302 28.216 73.8342 28.576C74.0382 28.924 74.1762 29.32 74.2482 29.764C74.3322 30.208 74.3742 30.658 74.3742 31.114V37ZM81.2954 37.18C80.2754 37.18 79.3934 36.958 78.6494 36.514C77.9174 36.07 77.3474 35.482 76.9394 34.75C76.5314 34.006 76.3274 33.202 76.3274 32.338C76.3274 31.45 76.5254 30.634 76.9214 29.89C77.3294 29.134 77.9054 28.534 78.6494 28.09C79.3934 27.634 80.2814 27.406 81.3134 27.406C82.3454 27.406 83.2274 27.634 83.9594 28.09C84.6914 28.534 85.2494 29.128 85.6334 29.872C86.0294 30.604 86.2274 31.396 86.2274 32.248C86.2274 32.56 86.2094 32.83 86.1734 33.058H78.8834C78.9434 33.79 79.2134 34.366 79.6934 34.786C80.1854 35.206 80.7494 35.416 81.3854 35.416C81.8654 35.416 82.3154 35.302 82.7354 35.074C83.1674 34.834 83.4614 34.522 83.6174 34.138L85.6874 34.714C85.3394 35.434 84.7814 36.028 84.0134 36.496C83.2454 36.952 82.3394 37.18 81.2954 37.18ZM78.8294 31.528H83.7614C83.6894 30.82 83.4194 30.25 82.9514 29.818C82.4954 29.374 81.9374 29.152 81.2774 29.152C80.6294 29.152 80.0714 29.374 79.6034 29.818C79.1474 30.25 78.8894 30.82 78.8294 31.528ZM93.7109 36.514C93.3869 36.658 92.9849 36.802 92.5049 36.946C92.0369 37.09 91.5509 37.162 91.0469 37.162C90.6029 37.162 90.1949 37.084 89.8229 36.928C89.4509 36.772 89.1509 36.526 88.9229 36.19C88.7069 35.842 88.5989 35.392 88.5989 34.84V29.422H87.3569V27.568H88.5989V24.508H91.0109V27.568H92.9909V29.422H91.0109V34.03C91.0109 34.354 91.0949 34.588 91.2629 34.732C91.4429 34.876 91.6589 34.948 91.9109 34.948C92.1629 34.948 92.4089 34.906 92.6489 34.822C92.8889 34.738 93.0809 34.666 93.2249 34.606L93.7109 36.514ZM101.034 36.514C100.71 36.658 100.308 36.802 99.828 36.946C99.36 37.09 98.874 37.162 98.37 37.162C97.926 37.162 97.518 37.084 97.146 36.928C96.774 36.772 96.474 36.526 96.246 36.19C96.03 35.842 95.922 35.392 95.922 34.84V29.422H94.68V27.568H95.922V24.508H98.334V27.568H100.314V29.422H98.334V34.03C98.334 34.354 98.418 34.588 98.586 34.732C98.766 34.876 98.982 34.948 99.234 34.948C99.486 34.948 99.732 34.906 99.972 34.822C100.212 34.738 100.404 34.666 100.548 34.606L101.034 36.514ZM106.991 37.18C105.971 37.18 105.089 36.958 104.345 36.514C103.613 36.07 103.043 35.482 102.635 34.75C102.227 34.006 102.023 33.202 102.023 32.338C102.023 31.45 102.221 30.634 102.617 29.89C103.025 29.134 103.601 28.534 104.345 28.09C105.089 27.634 105.977 27.406 107.009 27.406C108.041 27.406 108.923 27.634 109.655 28.09C110.387 28.534 110.945 29.128 111.329 29.872C111.725 30.604 111.923 31.396 111.923 32.248C111.923 32.56 111.905 32.83 111.869 33.058H104.579C104.639 33.79 104.909 34.366 105.389 34.786C105.881 35.206 106.445 35.416 107.081 35.416C107.561 35.416 108.011 35.302 108.431 35.074C108.863 34.834 109.157 34.522 109.313 34.138L111.383 34.714C111.035 35.434 110.477 36.028 109.709 36.496C108.941 36.952 108.035 37.18 106.991 37.18ZM104.525 31.528H109.457C109.385 30.82 109.115 30.25 108.647 29.818C108.191 29.374 107.633 29.152 106.973 29.152C106.325 29.152 105.767 29.374 105.299 29.818C104.843 30.25 104.585 30.82 104.525 31.528Z" fill="#323232"/>
<path fill-rule="evenodd" clip-rule="evenodd" d="M9.73014 21.9863L18.6728 41.5539L20.1546 38.139C20.3356 37.7218 20.4797 37.2932 20.587 36.8577C20.7856 36.6399 20.9519 36.3774 21.0728 36.0702L28.9663 16.0035C30.048 13.2536 26.3033 11.2323 24.5981 13.6456L16.8877 24.5575L11.1488 12L9.66696 15.415C8.75615 17.5141 8.77914 19.9054 9.73014 21.9863ZM20.7782 34.0874C20.6884 33.2243 20.4594 32.3727 20.0914 31.5677L17.3686 25.6098L25.4147 14.2227C26.4379 12.7747 28.6847 13.9875 28.0357 15.6374L20.7782 34.0874Z" fill="#323232" stroke="#323232" stroke-width="3"/>
</svg>
