<svg width="61" height="61" viewBox="0 0 61 61" fill="none" xmlns="http://www.w3.org/2000/svg">
<path fill-rule="evenodd" clip-rule="evenodd" d="M4.17361 0.699829H47.9476C51.3862 0.699829 54.3213 1.89676 56.7528 4.29062C59.1843 6.68446 60.4 9.57409 60.4 12.9595V56.9847C60.4 58.0106 60.0316 58.8862 59.2948 59.6117C58.558 60.3371 57.6685 60.6998 56.6264 60.6998C55.5844 60.6998 54.695 60.3371 53.9581 59.6117C53.2213 58.8862 52.8529 58.0106 52.8529 56.9847V12.9595C52.8529 11.6259 52.374 10.4876 51.4162 9.54465C50.4584 8.60167 49.3022 8.13017 47.9476 8.13017H4.17361C3.13157 8.13015 2.24211 7.76743 1.50529 7.04201C0.768447 6.31658 0.400024 5.44091 0.400024 4.415C0.400024 3.38909 0.768447 2.5134 1.50529 1.78796C2.24211 1.06255 3.13157 0.699829 4.17361 0.699829ZM26.4382 16.1179H26.4374C25.3955 16.1179 24.5062 16.4806 23.7694 17.2059C23.0326 17.9313 22.6642 18.8069 22.6642 19.8327V29.4929C22.6642 30.5187 23.0326 31.3942 23.7694 32.1196C24.5062 32.845 25.3955 33.2076 26.4374 33.2077H26.4382C27.4801 33.2076 28.3695 32.845 29.1063 32.1196C29.843 31.3942 30.2114 30.5187 30.2114 29.4929V19.8327C30.2114 18.8069 29.843 17.9313 29.1063 17.2059C28.3695 16.4806 27.4801 16.1179 26.4382 16.1179ZM40.7778 16.1179H40.777C39.7351 16.1179 38.8457 16.4806 38.109 17.2059C37.3722 17.9313 37.0038 18.8069 37.0038 19.8327V29.4929C37.0038 30.5187 37.3722 31.3942 38.109 32.1196C38.8457 32.845 39.7351 33.2076 40.777 33.2077H40.7778C41.8197 33.2076 42.7091 32.845 43.4458 32.1196C44.1826 31.3942 44.551 30.5187 44.551 29.4929V19.8327C44.551 18.8069 44.1826 17.9313 43.4458 17.2059C42.7091 16.4806 41.8197 16.1179 40.7778 16.1179ZM12.8525 60.6997H26.8151C27.8572 60.6997 28.7466 60.337 29.4835 59.6116C30.2203 58.8862 30.5887 58.0105 30.5887 56.9846C30.5887 55.9586 30.2203 55.083 29.4835 54.3575C28.7466 53.6321 27.8572 53.2694 26.8151 53.2694H12.8525C11.4979 53.2694 10.3418 52.7979 9.38394 51.8549C8.4261 50.9119 7.9472 49.7736 7.9472 48.44V33.3932C7.94722 32.3673 7.5788 31.4916 6.84195 30.7662C6.10513 30.0408 5.21568 29.6781 4.17361 29.6781C3.13157 29.6781 2.24211 30.0408 1.50529 30.7662C0.768447 31.4916 0.400024 32.3673 0.400024 33.3932V48.44C0.400024 51.8254 1.61578 54.7151 4.0473 57.1089C6.4788 59.5028 9.41386 60.6997 12.8525 60.6997ZM37.0038 56.9846C37.0038 54.9328 38.6933 53.2694 40.7774 53.2694C42.8615 53.2694 44.551 54.9328 44.551 56.9846C44.551 59.0364 42.8615 60.6997 40.7774 60.6997C38.6933 60.6997 37.0038 59.0364 37.0038 56.9846Z" fill="white"/>
</svg>
